# xmcd
#
# Track frame offsets: 
#        150
#        11310
#        24192
#        35978
#        58056
#        70575
#        83026
#        95922
#        107544
#        123891
#        136588
#        149746
#        163238
#        172608
#        184426
#        199591
#        213403
#
# Disc length: 3465 seconds
#
# Revision: 0
# Processed by: cddbd v1.5.2PL0 Copyright (c) Steve Scherf et al.
# Submitted via: ExactAudioCopy v0.99pb3
#
DISCID=e70d8711
DTITLE=Nina Simone - Gold [CD1)
DYEAR=2007
DGENRE=Blues
TTITLE0=I Loves You Porgy (Live)
TTITLE1=Images (Live)
TTITLE2=See-Line Woman (Live)
TTITLE3=Mississippi Goddam
TTITLE4=Don't Let Me Be Misunderstood
TTITLE5=A Monster
TTITLE6=Don't Take All Night
TTITLE7=I Put A Spell On You
TTITLE8=Ne Me Quitte Pas
TTITLE9=Tomorrow Is My Tuen
TTITLE10=Feeling Good
TTITLE11=Gimmie Some
TTITLE12=Take Care Of Business
TTITLE13=I Love Your Lovin' Ways
TTITLE14=Be My Husband
TTITLE15=Ain't No Use
TTITLE16=Sinnerman
EXTD=
EXTT0=
EXTT1=
EXTT2=
EXTT3=
EXTT4=
EXTT5=
EXTT6=
EXTT7=
EXTT8=
EXTT9=
EXTT10=
EXTT11=
EXTT12=
EXTT13=
EXTT14=
EXTT15=
EXTT16=
PLAYORDER=
